<svg xmlns="http://www.w3.org/2000/svg" width="97" height="107" viewBox="0 0 97 107" fill="none">
    <path d="M41.7896 65.3281H55.1478V78.6864H41.7896V65.3281Z" fill="#FFB300"/>
    <path d="M58.78 83.7009H38.146V77.2383C38.146 76.0239 39.1386 75.0312 40.353 75.0312H56.5835C57.7979 75.0312 58.7906 76.0239 58.7906 77.2383V83.7009H58.78Z" fill="#FFCA28"/>
    <path d="M68.8875 106.924H27.4717C26.2573 106.924 25.2646 105.932 25.2646 104.717V85.9101C25.2646 84.6958 26.2573 83.7031 27.4717 83.7031H68.8981C70.1124 83.7031 71.1051 84.6958 71.1051 85.9101V104.717C71.0945 105.942 70.1124 106.924 68.8875 106.924Z" fill="#455A64"/>
    <path d="M65.0926 102.611H30.9647C30.1811 102.611 29.5596 102.047 29.5596 101.363V89.2558C29.5596 88.5598 30.1946 88.0078 30.9647 88.0078H65.0926C65.8763 88.0078 66.4977 88.5718 66.4977 89.2558V101.351C66.4977 102.047 65.8763 102.611 65.0926 102.611Z" fill="#CFD8DC"/>
    <path d="M21.5568 11.7857V41.8602C12.7076 40.6247 5.87535 33.011 5.87535 23.824V11.7857H21.5568ZM27.069 6.27344H4.76657C2.32724 6.27344 0.352539 8.24813 0.352539 10.6875V23.8345C0.352539 36.9393 10.9758 47.5626 24.0806 47.5626H27.069V6.27344ZM91.0513 11.7857V23.2748C91.0513 32.5675 84.2508 40.3079 75.3699 41.7757V11.7857H91.0513ZM92.1601 6.27344H69.8576V47.552H72.297C85.6975 47.552 96.5636 36.6859 96.5636 23.2854V10.6875C96.5741 8.24813 94.5889 6.27344 92.1601 6.27344Z" fill="#FFB300"/>
    <path d="M48.4634 67.9766C31.2825 67.9766 17.354 54.0481 17.354 36.8672V2.47367C17.354 1.32264 18.2938 0.382812 19.4449 0.382812H77.4714C78.6224 0.382812 79.5623 1.32264 79.5623 2.47367V36.8672C79.5728 54.0481 65.6443 67.9766 48.4634 67.9766Z" fill="#FFCA28"/>
    <path d="M77.5349 47.9619L61.9907 27.5391L40.1846 43.1677L57.8196 66.5472C62.4553 65.0161 65.6972 62.9674 68.7913 60.3908C72.4767 57.3179 75.4334 53.2312 77.5349 47.9619Z" fill="#FFB806"/>
    <path d="M49.551 18.3912L52.8563 25.0756C53.0147 25.4029 53.3315 25.6247 53.6905 25.6775L61.0719 26.7546C61.98 26.8813 62.339 28.0007 61.6843 28.6343L56.341 33.8403C56.077 34.0937 55.9609 34.4633 56.0242 34.8118L57.2809 42.1615C57.4393 43.0591 56.4889 43.7455 55.6758 43.3231L48.5584 39.5849L41.441 43.3231C40.6279 43.7455 39.6881 43.0591 39.8359 42.1615L41.0926 34.8118C41.1559 34.4528 41.0398 34.0937 40.7758 33.8403L35.4325 28.6343C34.7778 28.0007 35.1368 26.8813 36.0449 26.7546L43.4263 25.6775C43.7853 25.6247 44.0916 25.4029 44.2605 25.0756L47.5658 18.3912C47.9776 17.5675 49.1497 17.5675 49.551 18.3912Z" fill="#FFF8E1"/>
    </svg>