<svg xmlns="http://www.w3.org/2000/svg" width="338" height="362" viewBox="0 0 338 362" fill="none">
    <path fill-rule="evenodd" clip-rule="evenodd" d="M217.204 148.568C216.879 148.197 216.407 147.989 215.914 148C215.421 148.012 214.959 148.241 214.652 148.627L193.048 175.761C192.65 176.26 192.574 176.943 192.851 177.518C193.128 178.093 193.71 178.459 194.348 178.459H205.214V242.451H208.539V176.796C208.539 175.878 207.794 175.134 206.876 175.134H197.797L216.013 152.255L236.035 175.134H225.029C224.111 175.134 223.367 175.878 223.367 176.796V202.467H226.692V178.459H239.699C240.352 178.459 240.944 178.077 241.213 177.483C241.483 176.889 241.38 176.192 240.95 175.701L217.204 148.568ZM178.826 191.124C177.908 191.124 177.164 191.868 177.164 192.786V242.451H180.488V194.448H196.897V242.451H200.222V192.786C200.222 191.868 199.478 191.124 198.56 191.124H178.826ZM151.662 208.809C150.744 208.809 150 209.553 150 210.471V242.451H153.325V212.134H169.734V242.451H173.058V210.471C173.058 209.553 172.314 208.809 171.396 208.809H151.662ZM243.906 241.089C245.302 239.871 246 238.332 246 236.471C246 235.266 245.747 234.247 245.24 233.412C244.734 232.564 243.947 231.818 242.88 231.175C241.812 230.518 240.205 229.848 238.056 229.163V220.255C240.164 220.406 242.237 220.885 244.276 221.692L245.343 219.003C243.003 218.059 240.574 217.553 238.056 217.484V213.789H235.408V217.525C233.123 217.771 231.283 218.469 229.887 219.619C228.505 220.768 227.814 222.239 227.814 224.032C227.814 225.893 228.375 227.412 229.497 228.589C230.633 229.765 232.603 230.799 235.408 231.688V240.719C234.191 240.719 232.836 240.562 231.344 240.247C229.866 239.919 228.56 239.502 227.424 238.995V242.197C228.341 242.621 229.517 242.957 230.954 243.203C232.391 243.436 233.876 243.552 235.408 243.552V248.129H238.056V243.367C240.56 243.052 242.51 242.293 243.906 241.089ZM241.587 234.356C242.202 234.958 242.51 235.752 242.51 236.737C242.51 238.845 241.026 240.104 238.056 240.514V232.53C239.808 233.132 240.985 233.741 241.587 234.356ZM232.206 226.495C231.591 225.865 231.283 225.031 231.283 223.991C231.283 223.047 231.632 222.26 232.33 221.63C233.027 220.987 234.054 220.556 235.408 220.337V228.281C233.889 227.72 232.822 227.124 232.206 226.495Z" fill="#1C3B71"/>
    <path d="M313.276 345.352C314.692 345.352 316.006 344.994 317.233 344.27C318.467 343.554 319.447 342.567 320.18 341.31C320.92 340.053 321.283 338.708 321.283 337.26C321.283 335.806 320.92 334.461 320.18 333.211C319.447 331.961 318.46 330.974 317.233 330.25C316.006 329.534 314.685 329.168 313.276 329.168C311.803 329.168 310.452 329.527 309.226 330.25C307.999 330.974 307.026 331.961 306.307 333.211C305.589 334.468 305.226 335.813 305.226 337.26C305.226 338.708 305.589 340.06 306.307 341.31C307.019 342.56 307.999 343.547 309.226 344.27C310.452 344.987 311.803 345.352 313.276 345.352Z" fill="#1C3B71"/>
    <path fill-rule="evenodd" clip-rule="evenodd" d="M330.436 354.387C325.732 359.124 319.968 361.529 313.312 361.529C306.648 361.529 300.869 359.131 296.136 354.395C291.403 349.658 289 343.949 289 337.451C289 330.967 291.359 325.214 296.013 320.361C300.688 315.478 306.372 313 312.898 313H313.725C320.317 313 326.001 315.463 330.618 320.317C335.206 325.141 337.529 330.887 337.529 337.4C337.521 343.934 335.14 349.651 330.436 354.387ZM329.747 337.217C329.747 332.626 328.171 328.767 324.926 325.412C321.696 322.079 317.929 320.456 313.391 320.456C308.847 320.456 305.021 322.086 301.697 325.434C298.379 328.782 296.76 332.619 296.76 337.173C296.76 341.734 298.379 345.608 301.711 349.015C305.036 352.414 308.84 354.073 313.341 354.073C317.841 354.073 321.616 352.436 324.876 349.073C328.157 345.689 329.747 341.815 329.747 337.217Z" fill="#1C3B71"/>
    <path d="M214.454 32.9274C215.413 32.9274 216.304 32.6846 217.135 32.1941C217.972 31.7086 218.636 31.0398 219.133 30.1876C219.635 29.3355 219.881 28.4239 219.881 27.4429C219.881 26.457 219.635 25.5454 219.133 24.6983C218.636 23.8511 217.967 23.1822 217.135 22.6918C216.304 22.2062 215.408 21.9585 214.454 21.9585C213.455 21.9585 212.54 22.2013 211.708 22.6918C210.877 23.1822 210.218 23.8511 209.731 24.6983C209.243 25.5504 208.997 26.462 208.997 27.4429C208.997 28.4239 209.243 29.3404 209.731 30.1876C210.213 31.0348 210.877 31.7036 211.708 32.1941C212.54 32.6797 213.455 32.9274 214.454 32.9274Z" fill="#1C3B71"/>
    <path fill-rule="evenodd" clip-rule="evenodd" d="M226.085 39.0512C222.896 42.2616 218.99 43.8916 214.478 43.8916C209.961 43.8916 206.045 42.2666 202.837 39.0562C199.629 35.8458 198 31.9765 198 27.5721C198 23.1776 199.599 19.2786 202.753 15.9889C205.922 12.6795 209.774 10.9999 214.197 10.9999H214.758C219.226 10.9999 223.078 12.6695 226.208 15.9592C229.317 19.229 230.892 23.1231 230.892 27.5374C230.887 31.9666 229.273 35.8408 226.085 39.0512ZM225.617 27.4136C225.617 24.3023 224.549 21.6864 222.35 19.4124C220.161 17.1532 217.607 16.0533 214.532 16.0533C211.452 16.0533 208.859 17.1581 206.605 19.4272C204.357 21.6963 203.26 24.2973 203.26 27.3838C203.26 30.4753 204.357 33.1011 206.615 35.4098C208.869 37.7136 211.447 38.8382 214.497 38.8382C217.548 38.8382 220.107 37.7284 222.316 35.4495C224.54 33.1556 225.617 30.5298 225.617 27.4136Z" fill="#1C3B71"/>
    <path d="M23.0114 217.666C24.3531 217.666 25.5986 217.327 26.7615 216.641C27.9313 215.962 28.8603 215.026 29.5552 213.835C30.2571 212.643 30.6012 211.368 30.6012 209.996C30.6012 208.617 30.2571 207.342 29.5552 206.158C28.8603 204.973 27.9244 204.037 26.7615 203.351C25.5986 202.672 24.3463 202.326 23.0114 202.326C21.6144 202.326 20.3346 202.665 19.1717 203.351C18.0088 204.037 17.0867 204.973 16.4055 206.158C15.7243 207.349 15.3802 208.624 15.3802 209.996C15.3802 211.368 15.7243 212.65 16.4055 213.835C17.0799 215.019 18.0088 215.955 19.1717 216.641C20.3346 217.32 21.6144 217.666 23.0114 217.666Z" fill="#1C3B71"/>
    <path fill-rule="evenodd" clip-rule="evenodd" d="M39.2772 226.231C34.8182 230.72 29.3547 233 23.0447 233C16.7279 233 11.2506 230.727 6.76413 226.238C2.27767 221.748 0 216.336 0 210.177C0 204.031 2.23638 198.578 6.64711 193.977C11.0785 189.349 16.4664 187 22.6525 187H23.4369C29.685 187 35.0728 189.335 39.4492 193.936C43.7981 198.509 46 203.955 46 210.128C45.9931 216.322 43.7361 221.741 39.2772 226.231ZM38.6235 209.955C38.6235 205.604 37.1303 201.945 34.0544 198.765C30.9924 195.606 27.4211 194.067 23.1205 194.067C18.8128 194.067 15.1865 195.612 12.035 198.786C8.89034 201.959 7.35587 205.597 7.35587 209.913C7.35587 214.237 8.89033 217.909 12.0488 221.138C15.2003 224.36 18.806 225.933 23.0722 225.933C27.3385 225.933 30.9167 224.381 34.0063 221.193C37.1165 217.985 38.6235 214.313 38.6235 209.955Z" fill="#1C3B71"/>
    <path d="M75 0C38.0442 0 8 30.0442 8 67C8 103.956 38.0442 134 75 134C111.956 134 142 103.956 142 67C142 30.0442 111.956 0 75 0ZM75 128.64C41.0063 128.64 13.36 100.994 13.36 67C13.36 33.0063 41.0063 5.36 75 5.36C108.994 5.36 136.64 33.0063 136.64 67C136.64 100.994 108.994 128.64 75 128.64Z" fill="#1B3B6F"/>
    <path d="M74.9998 18.76C48.3408 18.76 26.7598 40.3411 26.7598 67C26.7598 93.659 48.3408 115.24 74.9998 115.24C101.659 115.24 123.24 93.659 123.24 67C123.24 40.3411 101.659 18.76 74.9998 18.76ZM74.9998 109.88C51.3034 109.88 32.1198 90.6968 32.1198 67C32.1198 43.3032 51.3029 24.12 74.9998 24.12C98.6966 24.12 117.88 43.3032 117.88 67C117.88 90.6968 98.6966 109.88 74.9998 109.88Z" fill="#1B3B6F"/>
    <path d="M98.6969 49.7916L87.8356 50.6378C86.4246 50.7785 85.2971 52.0487 85.4378 53.4586C85.5785 54.8695 86.8487 55.997 88.2586 55.8563L92.4904 55.5739L81.3478 69.5384L63.293 72.2187C62.5876 72.3594 61.8821 72.6417 61.4591 73.3472L52.0085 86.3241C51.1624 87.5933 51.4447 89.1449 52.5723 90.1327C52.9954 90.4151 53.5602 90.6965 54.1239 90.6965C54.9701 90.6965 55.8163 90.2734 56.2393 89.568L65.1259 77.4374L83.1806 74.7572C83.8861 74.6165 84.4499 74.3341 84.873 73.7693L96.7211 58.9586L97.0035 63.4727C97.1442 64.8837 98.2728 66.0112 99.6838 66.0112H99.8245C101.235 65.8705 102.363 64.6003 102.222 63.1904L101.376 52.3291C101.519 50.7794 100.249 49.6508 98.6968 49.7916L98.6969 49.7916Z" fill="#1B3B6F"/>
    <path d="M290.858 293.676L290.858 293.676C315.117 268.158 327.477 237.624 327.477 203.088V203.083C327.438 168.402 314.755 137.987 289.857 112.908C264.933 87.8034 234.264 75 198.979 75C163.663 75 132.924 87.7617 107.853 112.86C82.8107 137.929 70 168.31 70 202.827C70 237.241 82.5647 267.812 107.149 293.464C131.895 319.318 162.17 332.556 196.869 332.556H201.089C236.099 332.556 266.387 319.409 290.858 293.676ZM143.396 147.333L143.396 147.333C159.474 130.891 177.608 123.034 199.127 123.034C220.664 123.034 238.637 130.793 254.361 147.019L254.361 147.019C270.214 163.375 277.792 181.899 277.792 204.02C277.792 226.116 270.28 244.563 254.619 260.762C239.06 276.822 221.13 284.522 199.387 284.522C177.603 284.522 159.356 276.781 143.298 260.609C127.268 244.427 119.574 226.1 119.574 204.244C119.574 182.345 127.273 163.821 143.396 147.333Z" fill="#1C3B71" stroke="white" stroke-width="10"/>
    </svg>