<svg xmlns="http://www.w3.org/2000/svg" xmlns:xlink="http://www.w3.org/1999/xlink" width="1920" zoomAndPan="magnify" viewBox="0 0 1440 299.999988" height="400" preserveAspectRatio="xMidYMid meet" version="1.0"><defs><g/></defs><rect x="-144" width="1728" fill="#ffffff" y="-29.999999" height="359.999986" fill-opacity="1"/><rect x="-144" width="1728" fill="#ffffff" y="-29.999999" height="359.999986" fill-opacity="1"/><rect x="-144" width="1728" fill="#1c3b71" y="-29.999999" height="359.999986" fill-opacity="1"/><g fill="#ffffff" fill-opacity="1"><g transform="translate(-8.854574, 249.320528)"><g><path d="M 24.382812 0 L 70.535156 0 L 70.535156 -203.191406 L 24.382812 -203.191406 Z M 24.382812 0 "/></g></g></g><g fill="#ffffff" fill-opacity="1"><g transform="translate(83.161622, 249.320528)"><g><path d="M 24.382812 0 L 70.246094 0 L 70.246094 -124.527344 L 159.941406 0 L 199.125 0 L 199.125 -203.191406 L 153.265625 -203.191406 L 153.265625 -79.535156 L 63.570312 -203.191406 L 24.382812 -203.191406 Z M 24.382812 0 "/></g></g></g><g fill="#ffffff" fill-opacity="1"><g transform="translate(303.768352, 249.320528)"><g><path d="M 24.382812 0 L 70.535156 0 L 70.535156 -69.957031 L 144.265625 -69.957031 L 144.265625 -110.59375 L 70.535156 -110.59375 L 70.535156 -161.390625 L 151.8125 -161.390625 L 151.8125 -203.191406 L 24.382812 -203.191406 Z M 24.382812 0 "/></g></g></g><g fill="#ffffff" fill-opacity="1"><g transform="translate(465.449806, 249.320528)"><g><path d="M 77.503906 0 L 123.65625 0 L 123.65625 -71.699219 L 198.257812 -203.191406 L 145.714844 -203.191406 L 120.753906 -156.167969 L 100.722656 -119.300781 L 80.40625 -156.167969 L 55.152344 -203.191406 L 2.613281 -203.191406 L 77.503906 -71.117188 Z M 77.503906 0 "/></g></g></g><g fill="#ffffff" fill-opacity="1"><g transform="translate(666.317614, 250.097756)"><g><path d="M 24.359375 0 L 159.207031 0 L 159.207031 -43.210938 L 70.46875 -43.210938 L 70.46875 -202.996094 L 24.359375 -202.996094 Z M 24.359375 0 "/></g></g></g><g fill="#ffffff" fill-opacity="1"><g transform="translate(830.454433, 250.097756)"><g><path d="M 24.359375 0 L 160.945312 0 L 160.945312 -39.148438 L 70.179688 -39.148438 L 70.179688 -83.519531 L 149.925781 -83.519531 L 149.925781 -122.089844 L 70.179688 -122.089844 L 70.179688 -164.136719 L 157.757812 -164.136719 L 157.757812 -202.996094 L 24.359375 -202.996094 Z M 24.359375 0 "/></g></g></g><g fill="#ffffff" fill-opacity="1"><g transform="translate(1003.291072, 250.097756)"><g><path d="M 2.609375 0 L 51.910156 0 L 65.539062 -35.089844 L 146.15625 -35.089844 L 159.789062 0 L 209.085938 0 L 128.46875 -202.996094 L 83.230469 -202.996094 Z M 77.429688 -71.339844 L 105.847656 -145.578125 L 134.558594 -71.339844 Z M 77.429688 -71.339844 "/></g></g></g><g fill="#ffffff" fill-opacity="1"><g transform="translate(1212.087042, 250.097756)"><g><path d="M 24.359375 0 L 104.6875 0 C 168.777344 0 211.695312 -40.890625 211.695312 -101.5 C 211.695312 -161.816406 168.777344 -202.996094 104.6875 -202.996094 L 24.359375 -202.996094 Z M 70.46875 -42.339844 L 70.46875 -160.65625 L 103.238281 -160.65625 C 139.777344 -160.65625 164.425781 -137.167969 164.425781 -101.5 C 164.425781 -65.828125 139.777344 -42.339844 103.816406 -42.339844 Z M 70.46875 -42.339844 "/></g></g></g></svg>