<svg xmlns="http://www.w3.org/2000/svg" xmlns:xlink="http://www.w3.org/1999/xlink" width="500" zoomAndPan="magnify" viewBox="0 0 375 374.999991" height="500" preserveAspectRatio="xMidYMid meet" version="1.0"><defs><g/></defs><rect x="-37.5" width="450" fill="#ffffff" y="-37.499999" height="449.999989" fill-opacity="1"/><rect x="-37.5" width="450" fill="#ffffff" y="-37.499999" height="449.999989" fill-opacity="1"/><rect x="-37.5" width="450" fill="#1c3b71" y="-37.499999" height="449.999989" fill-opacity="1"/><g fill="#ffffff" fill-opacity="1"><g transform="translate(13.35668, 160.002655)"><g><path d="M 12.613281 0 L 36.484375 0 L 36.484375 -105.101562 L 12.613281 -105.101562 Z M 12.613281 0 "/></g></g></g><g fill="#ffffff" fill-opacity="1"><g transform="translate(60.951173, 160.002655)"><g><path d="M 12.613281 0 L 36.335938 0 L 36.335938 -64.410156 L 82.730469 0 L 102.996094 0 L 102.996094 -105.101562 L 79.273438 -105.101562 L 79.273438 -41.140625 L 32.882812 -105.101562 L 12.613281 -105.101562 Z M 12.613281 0 "/></g></g></g><g fill="#ffffff" fill-opacity="1"><g transform="translate(175.057961, 160.002655)"><g><path d="M 12.613281 0 L 36.484375 0 L 36.484375 -36.183594 L 74.621094 -36.183594 L 74.621094 -57.203125 L 36.484375 -57.203125 L 36.484375 -83.480469 L 78.523438 -83.480469 L 78.523438 -105.101562 L 12.613281 -105.101562 Z M 12.613281 0 "/></g></g></g><g fill="#ffffff" fill-opacity="1"><g transform="translate(258.686206, 160.002655)"><g><path d="M 40.089844 0 L 63.960938 0 L 63.960938 -37.085938 L 102.546875 -105.101562 L 75.371094 -105.101562 L 62.460938 -80.777344 L 52.097656 -61.707031 L 41.589844 -80.777344 L 28.527344 -105.101562 L 1.351562 -105.101562 L 40.089844 -36.785156 Z M 40.089844 0 "/></g></g></g><g fill="#ffffff" fill-opacity="1"><g transform="translate(14.67065, 320.942981)"><g><path d="M 10.957031 0 L 71.617188 0 L 71.617188 -19.4375 L 31.699219 -19.4375 L 31.699219 -91.3125 L 10.957031 -91.3125 Z M 10.957031 0 "/></g></g></g><g fill="#ffffff" fill-opacity="1"><g transform="translate(88.500378, 320.942981)"><g><path d="M 10.957031 0 L 72.398438 0 L 72.398438 -17.609375 L 31.566406 -17.609375 L 31.566406 -37.570312 L 67.441406 -37.570312 L 67.441406 -54.917969 L 31.566406 -54.917969 L 31.566406 -73.832031 L 70.964844 -73.832031 L 70.964844 -91.3125 L 10.957031 -91.3125 Z M 10.957031 0 "/></g></g></g><g fill="#ffffff" fill-opacity="1"><g transform="translate(166.243344, 320.942981)"><g><path d="M 1.175781 0 L 23.351562 0 L 29.480469 -15.785156 L 65.746094 -15.785156 L 71.875 0 L 94.050781 0 L 57.789062 -91.3125 L 37.4375 -91.3125 Z M 34.828125 -32.089844 L 47.613281 -65.484375 L 60.527344 -32.089844 Z M 34.828125 -32.089844 "/></g></g></g><g fill="#ffffff" fill-opacity="1"><g transform="translate(260.161051, 320.942981)"><g><path d="M 10.957031 0 L 47.089844 0 C 75.921875 0 95.226562 -18.394531 95.226562 -45.65625 C 95.226562 -72.789062 75.921875 -91.3125 47.089844 -91.3125 L 10.957031 -91.3125 Z M 31.699219 -19.046875 L 31.699219 -72.269531 L 46.4375 -72.269531 C 62.875 -72.269531 73.964844 -61.703125 73.964844 -45.65625 C 73.964844 -29.613281 62.875 -19.046875 46.699219 -19.046875 Z M 31.699219 -19.046875 "/></g></g></g></svg>