<?xml version="1.0" standalone="no"?>
<!DOCTYPE svg PUBLIC "-//W3C//DTD SVG 20010904//EN"
 "http://www.w3.org/TR/2001/REC-SVG-20010904/DTD/svg10.dtd">
<svg version="1.0" xmlns="http://www.w3.org/2000/svg"
 width="700.000000pt" height="700.000000pt" viewBox="0 0 700.000000 700.000000"
 preserveAspectRatio="xMidYMid meet">
<metadata>
Created by potrace 1.14, written by Peter Selinger 2001-2017
</metadata>
<g transform="translate(0.000000,700.000000) scale(0.100000,-0.100000)"
fill="#000000" stroke="none">
<path d="M2977 6479 l-517 -519 -628 0 c-345 0 -667 0 -717 0 l-90 0 0 -718 0
-717 -508 -508 c-279 -279 -507 -511 -507 -517 0 -6 228 -238 508 -518 l507
-507 0 -733 0 -732 733 0 732 0 505 -505 505 -505 505 505 505 505 732 2 732
3 1 730 0 730 512 512 513 513 -513 512 -512 513 0 712 c-1 392 -3 715 -6 718
-3 3 -326 5 -717 5 l-712 0 -520 520 c-286 286 -521 520 -523 519 -1 0 -235
-234 -520 -520z"/>
</g>
</svg>
